<?xml version="1.0" standalone="no"?><!DOCTYPE svg PUBLIC "-//W3C//DTD SVG 1.1//EN" "http://www.w3.org/Graphics/SVG/1.1/DTD/svg11.dtd"><svg t="1517121730414" class="icon" style="" viewBox="0 0 1024 1024" version="1.1" xmlns="http://www.w3.org/2000/svg" p-id="2498" xmlns:xlink="http://www.w3.org/1999/xlink" width="200" height="200"><defs><style type="text/css"></style></defs><path d="M928 384h-256c-19.2 0-32-12.8-32-32v-256c0-19.2 12.8-32 32-32s32 12.8 32 32V320h224c19.2 0 32 12.8 32 32s-12.8 32-32 32m-576 576c-19.2 0-32-12.8-32-32V704H96c-19.2 0-32-12.8-32-32s12.8-32 32-32h256c19.2 0 32 12.8 32 32v256c0 19.2-12.8 32-32 32m0-576h-256c-19.2 0-32-12.8-32-32s12.8-32 32-32H320V96c0-19.2 12.8-32 32-32s32 12.8 32 32v256c0 19.2-12.8 32-32 32m320 256h256c19.2 0 32 12.8 32 32s-12.8 32-32 32H704v224c0 19.2-12.8 32-32 32s-32-12.8-32-32v-256c0-19.2 12.8-32 32-32" p-id="2499" fill="#ffffff"></path></svg>